<?xml version="1.0" encoding="UTF-8" standalone="no"?>
<!-- Created with Inkscape (http://www.inkscape.org/) -->

<svg
   width="100"
   height="100"
   viewBox="0 0 26.458333 26.458334"
   version="1.1"
   id="svg1651"
   xmlns="http://www.w3.org/2000/svg"
   xmlns:svg="http://www.w3.org/2000/svg">
  <defs
     id="defs1648" />
  <g
     id="layer1">
    <ellipse
       style="fill:none;fill-opacity:1;stroke:#c9c9c9;stroke-width:1.15207;stroke-linecap:round;stroke-linejoin:round;stroke-opacity:1;stop-color:#000000"
       id="path10093-89"
       cx="13.229164"
       cy="13.229168"
       rx="12.653129"
       ry="12.653131" />
    <path
       id="path10093-8-3"
       style="fill:#c9c9c9;fill-opacity:1;stroke-width:1.20452;stroke-linecap:round;stroke-linejoin:round;stop-color:#000000"
       d="M 13.229167,0 V 13.22917 H 26.458338 A 13.229166,13.229166 0 0 0 13.229167,0 Z" />
    <path
       id="path10093-8-0-68"
       style="fill:#c9c9c9;fill-opacity:1;stroke-width:1.20452;stroke-linecap:round;stroke-linejoin:round;stop-color:#000000"
       d="M 13.230718,13.22968 1.241269,18.82056 a 13.229166,13.229166 0 0 0 1.943034,3.0086 z m -9.964766,8.69663 a 13.229166,13.229166 0 0 0 0.277502,0.30541 13.229166,13.229166 0 0 1 -0.277502,-0.30541 z m 0.531233,0.57413 a 13.229166,13.229166 0 0 0 0.313676,0.3054 13.229166,13.229166 0 0 1 -0.313676,-0.3054 z m 0.559139,0.5364 a 13.229166,13.229166 0 0 0 0.339514,0.29352 13.229166,13.229166 0 0 1 -0.339514,-0.29352 z m 0.604098,0.51521 a 13.229166,13.229166 0 0 0 0.3576,0.27285 13.229166,13.229166 0 0 1 -0.3576,-0.27285 z m 0.619083,0.46767 a 13.229166,13.229166 0 0 0 0.40411,0.2713 13.229166,13.229166 0 0 1 -0.40411,-0.2713 z M 6.236313,24.4569 A 13.229166,13.229166 0 0 0 6.654892,24.70237 13.229166,13.229166 0 0 1 6.236313,24.4569 Z m 0.679028,0.39585 A 13.229166,13.229166 0 0 0 7.3954151,25.09666 13.229166,13.229166 0 0 1 6.915341,24.85275 Z m 0.6981491,0.35346 a 13.229166,13.229166 0 0 0 0.671277,0.29146 13.229166,13.229166 0 0 1 -0.671277,-0.29146 z m 11.2055169,0.008 a 13.229166,13.229166 0 0 1 -0.203605,0.0946 13.229166,13.229166 0 0 0 0.206189,-0.0889 z m -0.515214,0.22945 a 13.229166,13.229166 0 0 1 -0.411861,0.16226 13.229166,13.229166 0 0 0 0.411861,-0.16226 z m -9.9725179,0.0744 a 13.229166,13.229166 0 0 0 0.748792,0.27285 13.229166,13.229166 0 0 1 -0.748792,-0.27285 z m 9.2283779,0.20877 a 13.229166,13.229166 0 0 1 -0.408244,0.13281 13.229166,13.229166 0 0 0 0.408244,-0.13281 z m -8.4770019,0.0651 a 13.229166,13.229166 0 0 0 0.748791,0.22221 13.229166,13.229166 0 0 1 -0.748791,-0.22221 z m 7.7307939,0.16898 a 13.229166,13.229166 0 0 1 -0.414962,0.10801 13.229166,13.229166 0 0 0 0.414962,-0.10801 z m -6.754627,0.10749 a 13.229166,13.229166 0 0 0 0.534851,0.12402 13.229166,13.229166 0 0 1 -0.534851,-0.12402 z m 5.984648,0.0848 a 13.229166,13.229166 0 0 1 -0.402043,0.0791 13.229166,13.229166 0 0 0 0.402043,-0.0791 z m -5.157308,0.0909 a 13.229166,13.229166 0 0 0 0.480591,0.0816 13.229166,13.229166 0 0 1 -0.480591,-0.0816 z m 4.386296,0.0532 a 13.229166,13.229166 0 0 1 -0.426331,0.0574 13.229166,13.229166 0 0 0 0.426331,-0.0574 z m -3.594096,0.0651 a 13.229166,13.229166 0 0 0 0.472322,0.0506 13.229166,13.229166 0 0 1 -0.472322,-0.0506 z m 2.8236,0.0326 a 13.229166,13.229166 0 0 1 -0.450102,0.0336 13.229166,13.229166 0 0 0 0.450102,-0.0336 z m -2.049487,0.0357 a 13.229166,13.229166 0 0 0 0.487308,0.0232 13.229166,13.229166 0 0 1 -0.487308,-0.0232 z m 1.268139,0.017 a 13.229166,13.229166 0 0 1 -0.475423,0.006 13.229166,13.229166 0 0 0 0.475423,-0.006 z" />
    <path
       id="path10093-8-0-6-0"
       style="fill:#c9c9c9;fill-opacity:1;stroke-width:1.20452;stroke-linecap:round;stroke-linejoin:round;stop-color:#000000"
       d="m 13.231581,13.22927 -9.35353,9.35501 a 13.229166,13.229166 0 0 0 2.855013,2.1624 z m -6.38856,11.58077 a 13.229166,13.229166 0 0 0 0.365237,0.19205 13.229166,13.229166 0 0 1 -0.365237,-0.19205 z m 0.6955851,0.35776 a 13.229166,13.229166 0 0 0 0.399227,0.17967 13.229166,13.229166 0 0 1 -0.399227,-0.17967 z m 0.708901,0.31276 a 13.229166,13.229166 0 0 0 0.419441,0.15967 13.229166,13.229166 0 0 1 -0.419441,-0.15967 z m 0.7439,0.27748 a 13.229166,13.229166 0 0 0 0.429365,0.13406 13.229166,13.229166 0 0 1 -0.429365,-0.13406 z m 0.741718,0.22767 a 13.229166,13.229166 0 0 0 0.4725379,0.1167 13.229166,13.229166 0 0 1 -0.4725379,-0.1167 z m 0.7667359,0.18612 a 13.229166,13.229166 0 0 0 0.477295,0.0875 13.229166,13.229166 0 0 1 -0.477295,-0.0875 z m 0.773473,0.13968 a 13.229166,13.229166 0 0 0 0.53455,0.065 13.229166,13.229166 0 0 1 -0.53455,-0.065 z m 0.776945,0.0933 a 13.229166,13.229166 0 0 0 0.73048,0.0442 13.229166,13.229166 0 0 1 -0.73048,-0.0442 z m 10.532133,-3.82595 a 13.229166,13.229166 0 0 1 -0.158969,0.15852 13.229166,13.229166 0 0 0 0.163344,-0.15406 z m -0.40564,0.39185 a 13.229166,13.229166 0 0 1 -0.331504,0.29337 13.229166,13.229166 0 0 0 0.331504,-0.29337 z m -9.3454,3.4814 a 13.229166,13.229166 0 0 0 0.796954,2.4e-4 13.229166,13.229166 0 0 1 -0.796954,-2.4e-4 z m 8.743029,-2.96074 a 13.229166,13.229166 0 0 1 -0.338181,0.26445 13.229166,13.229166 0 0 0 0.338181,-0.26445 z m -7.943294,2.96107 a 13.229166,13.229166 0 0 0 0.779631,-0.0473 13.229166,13.229166 0 0 1 -0.779631,0.0473 z m 7.322187,-2.48583 a 13.229166,13.229166 0 0 1 -0.35298,0.24344 13.229166,13.229166 0 0 0 0.35298,-0.24344 z m -6.310337,2.41168 a 13.229166,13.229166 0 0 0 0.545009,-0.0664 13.229166,13.229166 0 0 1 -0.545009,0.0664 z m 5.652574,-1.96764 a 13.229166,13.229166 0 0 1 -0.350741,0.21183 13.229166,13.229166 0 0 0 0.350741,-0.21183 z m -4.815044,1.84972 a 13.229166,13.229166 0 0 0 0.479528,-0.0877 13.229166,13.229166 0 0 1 -0.479528,0.0877 z m 4.139871,-1.45048 a 13.229166,13.229166 0 0 1 -0.380987,0.19974 13.229166,13.229166 0 0 0 0.380987,-0.19974 z m -3.354983,1.29068 a 13.229166,13.229166 0 0 0 0.461149,-0.114 13.229166,13.229166 0 0 1 -0.461149,0.114 z m 2.664384,-0.93533 a 13.229166,13.229166 0 0 1 -0.411455,0.18554 13.229166,13.229166 0 0 0 0.411455,-0.18554 z m -1.913638,0.73461 a 13.229166,13.229166 0 0 0 0.465865,-0.14484 13.229166,13.229166 0 0 1 -0.465865,0.14484 z m 1.197462,-0.41779 a 13.229166,13.229166 0 0 1 -0.444619,0.16846 13.229166,13.229166 0 0 0 0.444619,-0.16846 z" />
  </g>
</svg>
