<?xml version="1.0" encoding="UTF-8" standalone="no"?>
<!-- Created with Inkscape (http://www.inkscape.org/) -->

<svg
   width="100"
   height="100"
   viewBox="0 0 26.458333 26.458333"
   version="1.1"
   id="svg10067"
   inkscape:version="1.1.1 (3bf5ae0d25, 2021-09-20)"
   sodipodi:docname="pluginIcon.svg"
   xmlns:inkscape="http://www.inkscape.org/namespaces/inkscape"
   xmlns:sodipodi="http://sodipodi.sourceforge.net/DTD/sodipodi-0.dtd"
   xmlns="http://www.w3.org/2000/svg"
   xmlns:svg="http://www.w3.org/2000/svg">
  <sodipodi:namedview
     id="namedview10069"
     pagecolor="#ffffff"
     bordercolor="#666666"
     borderopacity="1.0"
     inkscape:pageshadow="2"
     inkscape:pageopacity="0.0"
     inkscape:pagecheckerboard="true"
     inkscape:document-units="px"
     showgrid="false"
     units="px"
     inkscape:zoom="4"
     inkscape:cx="71.25"
     inkscape:cy="58.125"
     inkscape:window-width="1920"
     inkscape:window-height="1056"
     inkscape:window-x="1920"
     inkscape:window-y="0"
     inkscape:window-maximized="1"
     inkscape:current-layer="layer1" />
  <defs
     id="defs10064" />
  <g
     inkscape:label="Layer 1"
     inkscape:groupmode="layer"
     id="layer1">
    <ellipse
       style="fill:none;fill-opacity:1;stroke:#000000;stroke-width:1.15207;stroke-linecap:round;stroke-linejoin:round;stroke-opacity:1;stop-color:#000000"
       id="path10093"
       cx="13.229163"
       cy="13.229165"
       rx="12.653129"
       ry="12.653131" />
    <path
       id="path10093-8"
       style="fill:#000000;fill-opacity:1;stroke-width:4.55252;stroke-linecap:round;stroke-linejoin:round;stop-color:#000000"
       d="M 50 0 L 50 50 L 100 50 A 49.999998 49.999998 0 0 0 50 0 z "
       transform="scale(0.26458333)" />
    <path
       id="path10093-8-0"
       style="fill:#000000;fill-opacity:1;stroke-width:4.55252;stroke-linecap:round;stroke-linejoin:round;stop-color:#000000"
       inkscape:transform-center-x="3.1985502"
       inkscape:transform-center-y="6.6147572"
       d="M 50.005859 50.001953 L 4.6914062 71.132812 A 49.999998 49.999998 0 0 0 12.035156 82.503906 L 50.005859 50.001953 z M 12.34375 82.871094 A 49.999998 49.999998 0 0 0 13.392578 84.025391 A 49.999998 49.999998 0 0 1 12.34375 82.871094 z M 14.351562 85.041016 A 49.999998 49.999998 0 0 0 15.537109 86.195312 A 49.999998 49.999998 0 0 1 14.351562 85.041016 z M 16.464844 87.068359 A 49.999998 49.999998 0 0 0 17.748047 88.177734 A 49.999998 49.999998 0 0 1 16.464844 87.068359 z M 18.748047 89.015625 A 49.999998 49.999998 0 0 0 20.099609 90.046875 A 49.999998 49.999998 0 0 1 18.748047 89.015625 z M 21.087891 90.783203 A 49.999998 49.999998 0 0 0 22.615234 91.808594 A 49.999998 49.999998 0 0 1 21.087891 90.783203 z M 23.570312 92.435547 A 49.999998 49.999998 0 0 0 25.152344 93.363281 A 49.999998 49.999998 0 0 1 23.570312 92.435547 z M 26.136719 93.931641 A 49.999998 49.999998 0 0 0 27.951172 94.853516 A 49.999998 49.999998 0 0 1 26.136719 93.931641 z M 28.775391 95.267578 A 49.999998 49.999998 0 0 0 31.3125 96.369141 A 49.999998 49.999998 0 0 1 28.775391 95.267578 z M 71.126953 95.296875 A 49.999998 49.999998 0 0 1 70.357422 95.654297 A 49.999998 49.999998 0 0 0 71.136719 95.318359 L 71.126953 95.296875 z M 69.179688 96.164062 A 49.999998 49.999998 0 0 1 67.623047 96.777344 A 49.999998 49.999998 0 0 0 69.179688 96.164062 z M 31.488281 96.445312 A 49.999998 49.999998 0 0 0 34.318359 97.476562 A 49.999998 49.999998 0 0 1 31.488281 96.445312 z M 66.367188 97.234375 A 49.999998 49.999998 0 0 1 64.824219 97.736328 A 49.999998 49.999998 0 0 0 66.367188 97.234375 z M 34.328125 97.480469 A 49.999998 49.999998 0 0 0 37.158203 98.320312 A 49.999998 49.999998 0 0 1 34.328125 97.480469 z M 63.546875 98.119141 A 49.999998 49.999998 0 0 1 61.978516 98.527344 A 49.999998 49.999998 0 0 0 63.546875 98.119141 z M 38.017578 98.525391 A 49.999998 49.999998 0 0 0 40.039062 98.994141 A 49.999998 49.999998 0 0 1 38.017578 98.525391 z M 60.636719 98.845703 A 49.999998 49.999998 0 0 1 59.117188 99.144531 A 49.999998 49.999998 0 0 0 60.636719 98.845703 z M 41.144531 99.189453 A 49.999998 49.999998 0 0 0 42.960938 99.498047 A 49.999998 49.999998 0 0 1 41.144531 99.189453 z M 57.722656 99.390625 A 49.999998 49.999998 0 0 1 56.111328 99.607422 A 49.999998 49.999998 0 0 0 57.722656 99.390625 z M 44.138672 99.636719 A 49.999998 49.999998 0 0 0 45.923828 99.828125 A 49.999998 49.999998 0 0 1 44.138672 99.636719 z M 54.810547 99.759766 A 49.999998 49.999998 0 0 1 53.109375 99.886719 A 49.999998 49.999998 0 0 0 54.810547 99.759766 z M 47.064453 99.894531 A 49.999998 49.999998 0 0 0 48.90625 99.982422 A 49.999998 49.999998 0 0 1 47.064453 99.894531 z M 51.857422 99.958984 A 49.999998 49.999998 0 0 1 50.060547 99.982422 A 49.999998 49.999998 0 0 0 51.857422 99.958984 z "
       transform="scale(0.26458333)" />
    <path
       id="path10093-8-0-6"
       style="fill:#000000;fill-opacity:1;stroke-width:1.20452;stroke-linecap:round;stroke-linejoin:round;stop-color:#000000"
       inkscape:transform-center-x="-0.0024388"
       inkscape:transform-center-y="6.6167267"
       d="M 13.23158,13.22927 3.8780499,22.584281 A 13.229166,13.229166 0 0 0 6.733063,24.746679 Z M 6.8430203,24.810039 a 13.229166,13.229166 0 0 0 0.3652365,0.192052 13.229166,13.229166 0 0 1 -0.3652365,-0.192052 z m 0.6955845,0.357758 a 13.229166,13.229166 0 0 0 0.3992276,0.179677 13.229166,13.229166 0 0 1 -0.3992276,-0.179677 z m 0.7089015,0.312764 a 13.229166,13.229166 0 0 0 0.4194408,0.15967 13.229166,13.229166 0 0 1 -0.4194408,-0.15967 z m 0.7438994,0.277476 a 13.229166,13.229166 0 0 0 0.4293654,0.134059 13.229166,13.229166 0 0 1 -0.4293654,-0.134059 z m 0.7417181,0.227675 a 13.229166,13.229166 0 0 0 0.4725382,0.116693 13.229166,13.229166 0 0 1 -0.4725382,-0.116693 z m 0.7667362,0.186121 a 13.229166,13.229166 0 0 0 0.477295,0.08746 13.229166,13.229166 0 0 1 -0.477295,-0.08746 z m 0.773473,0.139672 a 13.229166,13.229166 0 0 0 0.53455,0.06497 13.229166,13.229166 0 0 1 -0.53455,-0.06497 z m 0.776945,0.09331 a 13.229166,13.229166 0 0 0 0.73048,0.04424 13.229166,13.229166 0 0 1 -0.73048,-0.04424 z m 10.532133,-3.825943 a 13.229166,13.229166 0 0 1 -0.158969,0.158515 13.229166,13.229166 0 0 0 0.163344,-0.154053 z m -0.40564,0.391849 a 13.229166,13.229166 0 0 1 -0.331504,0.293367 13.229166,13.229166 0 0 0 0.331504,-0.293367 z m -9.3454,3.481399 a 13.229166,13.229166 0 0 0 0.796954,2.37e-4 13.229166,13.229166 0 0 1 -0.796954,-2.37e-4 z M 21.5744,23.491384 a 13.229166,13.229166 0 0 1 -0.338181,0.26445 13.229166,13.229166 0 0 0 0.338181,-0.26445 z m -7.943294,2.961062 a 13.229166,13.229166 0 0 0 0.779631,-0.04735 13.229166,13.229166 0 0 1 -0.779631,0.04735 z m 7.322187,-2.485825 a 13.229166,13.229166 0 0 1 -0.35298,0.243442 13.229166,13.229166 0 0 0 0.35298,-0.243442 z M 14.642956,26.3783 a 13.229166,13.229166 0 0 0 0.545009,-0.06643 13.229166,13.229166 0 0 1 -0.545009,0.06643 z m 5.652574,-1.967639 a 13.229166,13.229166 0 0 1 -0.350741,0.211824 13.229166,13.229166 0 0 0 0.350741,-0.211824 z m -4.815044,1.849715 a 13.229166,13.229166 0 0 0 0.479528,-0.08768 13.229166,13.229166 0 0 1 -0.479528,0.08768 z m 4.139871,-1.45048 a 13.229166,13.229166 0 0 1 -0.380987,0.199742 13.229166,13.229166 0 0 0 0.380987,-0.199742 z m -3.354983,1.290679 a 13.229166,13.229166 0 0 0 0.461149,-0.113991 13.229166,13.229166 0 0 1 -0.461149,0.113991 z m 2.664384,-0.935324 a 13.229166,13.229166 0 0 1 -0.411455,0.185538 13.229166,13.229166 0 0 0 0.411455,-0.185538 z m -1.913638,0.734613 a 13.229166,13.229166 0 0 0 0.465865,-0.144845 13.229166,13.229166 0 0 1 -0.465865,0.144845 z m 1.197462,-0.417794 a 13.229166,13.229166 0 0 1 -0.444619,0.168463 13.229166,13.229166 0 0 0 0.444619,-0.168463 z" />
  </g>
</svg>
